<?xml version="1.0" encoding="utf-8"?>
<!-- Generator: Adobe Illustrator 16.0.0, SVG Export Plug-In . SVG Version: 6.00 Build 0)  -->
<!DOCTYPE svg PUBLIC "-//W3C//DTD SVG 1.1//EN" "http://www.w3.org/Graphics/SVG/1.1/DTD/svg11.dtd">
<svg version="1.1" id="Calque_1" xmlns="http://www.w3.org/2000/svg" xmlns:xlink="http://www.w3.org/1999/xlink" x="0px" y="0px"
	 width="160px" height="180px" viewBox="0 0 160 180" enable-background="new 0 0 160 180" xml:space="preserve">
<g>
	<path fill="#009540" d="M80,180c-3.413,0-6.824-0.889-9.881-2.668L9.881,142.288C3.767,138.73,0,132.157,0,125.042V54.956
		c0-7.114,3.767-13.688,9.881-17.245L70.119,2.668c6.114-3.558,13.648-3.557,19.762,0l60.238,35.043
		C156.232,41.268,160,47.842,160,54.956v70.086c0,7.114-3.768,13.688-9.881,17.245l-60.238,35.044C86.824,179.109,83.411,180,80,180
		z"/>
</g>
<rect id="_x3C_Tranche_x3E_" fill="none" width="162" height="181"/>
</svg>
